<?xml version="1.0" encoding="UTF-8" standalone="no"?>
<!-- Created with Inkscape (http://www.inkscape.org/) -->

<svg
   xmlns:dc="http://purl.org/dc/elements/1.1/"
   xmlns:cc="http://creativecommons.org/ns#"
   xmlns:rdf="http://www.w3.org/1999/02/22-rdf-syntax-ns#"
   xmlns:svg="http://www.w3.org/2000/svg"
   xmlns="http://www.w3.org/2000/svg"
   xmlns:sodipodi="http://sodipodi.sourceforge.net/DTD/sodipodi-0.dtd"
   xmlns:inkscape="http://www.inkscape.org/namespaces/inkscape"
   sodipodi:docname="stageit.svg"
   width="210mm"
   height="297mm"
   viewBox="0 0 210 297"
   version="1.1"
   id="svg8"
   inkscape:version="0.92.3 (2405546, 2018-03-11)">
  <sodipodi:namedview
     id="base"
     pagecolor="#ffffff"
     bordercolor="#666666"
     borderopacity="1.0"
     inkscape:pageopacity="0.0"
     inkscape:pageshadow="2"
     inkscape:zoom="0.98994949"
     inkscape:cx="215.85635"
     inkscape:cy="886.56425"
     inkscape:document-units="mm"
     inkscape:current-layer="layer1"
     showgrid="false"
     inkscape:window-width="1920"
     inkscape:window-height="1147"
     inkscape:window-x="1920"
     inkscape:window-y="215"
     inkscape:window-maximized="1" />
  <defs
     id="defs2" />
  <metadata
     id="metadata5">
    <rdf:RDF>
      <cc:Work
         rdf:about="">
        <dc:format>image/svg+xml</dc:format>
        <dc:type
           rdf:resource="http://purl.org/dc/dcmitype/StillImage" />
        <dc:title></dc:title>
      </cc:Work>
    </rdf:RDF>
  </metadata>
  <g
     inkscape:label="Livello 1"
     inkscape:groupmode="layer"
     id="layer1">
    <g
       id="g2158">
      <path
         style="fill:none;stroke:#000000;stroke-width:0.26458332;stroke-opacity:1"
         d="M147.96928 82.6869409188C147.969278388 111.598883509 124.53151759 135.036643 95.619575 135.036643C66.7076324502 135.036643 43.2698716686 111.598883571 43.26987 82.686941C43.26987 68.8029359958 48.7852695129 55.4875836899 58.6027436014 45.6701096014C68.4202176899 35.8526355129 81.7355699958 30.337236 95.619575 30.337236C109.503580004 30.337236 122.81893231 35.8526355129 132.636406399 45.6701096014C142.453880487 55.4875836899 147.96928 68.8029359958 147.96928 82.686941C147.96928 82.686941 147.96928 82.686941 147.96928 82.686941"
         id="path0939" />
    </g>
    <path
       inkscape:connector-curvature="0"
       id="path33"
       d="m 138.61076,62.700615 c 0.0127,-0.418015 0.22479,-0.901169 0.5144,-1.171837 0.22654,-0.211738 0.38092,-0.285267 2.08424,-0.992599 2.14751,-0.891791 2.20624,-0.90504 2.84282,-0.642046 0.87621,0.362018 1.24682,1.254473 0.8848,2.13069 -0.26301,0.636582 -0.31386,0.66882 -2.46136,1.560611 -2.11193,0.877015 -2.23399,0.904954 -2.83203,0.649971 -0.44954,-0.191709 -0.71406,-0.45481 -0.89474,-0.889908 -0.0993,-0.239026 -0.14409,-0.448399 -0.13815,-0.644882 z"
       style="fill:#000000;fill-opacity:1;stroke:none;stroke-width:0.05895934;stroke-opacity:1" />
    <path
       inkscape:connector-curvature="0"
       id="path42966"
       d="m 142.79687,87.091907 c 0.21031,-0.361488 0.62696,-0.685257 1.01054,-0.785271 0.30005,-0.07825 0.47082,-0.06935 2.30542,0.120188 2.31302,0.238962 2.37097,0.255293 2.80539,0.78979 0.59794,0.735727 0.49863,1.696966 -0.23709,2.294909 -0.53452,0.434412 -0.59458,0.438533 -2.90761,0.199571 -2.2747,-0.235004 -2.39532,-0.268585 -2.79967,-0.77768 -0.30393,-0.382718 -0.41117,-0.740065 -0.36275,-1.208698 0.0266,-0.257448 0.0869,-0.462894 0.18575,-0.63282 z"
       style="fill:#000000;fill-opacity:1;stroke:none;stroke-width:0.05895986;stroke-opacity:1" />
    <path
       inkscape:connector-curvature="0"
       id="path42971"
       d="m 134.23363,110.15123 c 0.36361,-0.20662 0.88658,-0.27683 1.2684,-0.1703 0.29868,0.0833 0.44179,0.17692 1.93199,1.26366 1.8788,1.37013 1.92067,1.4134 2.02722,2.09387 0.14665,0.93666 -0.42274,1.71745 -1.3594,1.8641 -0.68049,0.10654 -0.73447,0.0799 -2.61328,-1.29025 -1.84768,-1.34743 -1.93503,-1.43714 -2.02838,-2.08053 -0.0701,-0.48366 0.0169,-0.84645 0.29455,-1.22711 0.1525,-0.20911 0.30799,-0.35632 0.47889,-0.45346 z"
       style="fill:#000000;fill-opacity:1;stroke:none;stroke-width:0.05895983;stroke-opacity:1" />
    <path
       inkscape:connector-curvature="0"
       id="path42976"
       d="m 115.363,125.78297 c 0.41801,0.0127 0.90117,0.22479 1.17183,0.5144 0.21174,0.22654 0.28527,0.38092 0.9926,2.08424 0.89179,2.14751 0.90504,2.20624 0.64205,2.84282 -0.36202,0.87621 -1.25447,1.24682 -2.13069,0.8848 -0.63658,-0.26301 -0.66882,-0.31386 -1.56061,-2.46136 -0.87702,-2.11193 -0.90496,-2.23399 -0.64997,-2.83203 0.19171,-0.44954 0.45481,-0.71406 0.88991,-0.89474 0.23902,-0.0993 0.44839,-0.14409 0.64488,-0.13815 z"
       style="fill:#000000;fill-opacity:1;stroke:none;stroke-width:0.05895934;stroke-opacity:1" />
    <path
       inkscape:connector-curvature="0"
       id="path42981"
       d="m 90.952768,129.84076 c 0.361488,0.2103 0.685257,0.62695 0.785272,1.01053 0.07825,0.30006 0.06935,0.47083 -0.120186,2.30542 -0.238961,2.31302 -0.255292,2.37098 -0.789788,2.80539 -0.735726,0.59795 -1.696964,0.49864 -2.294908,-0.23709 -0.434412,-0.53451 -0.438534,-0.59458 -0.199573,-2.9076 0.235001,-2.2747 0.268583,-2.39532 0.777677,-2.79967 0.382718,-0.30393 0.740064,-0.41117 1.208697,-0.36275 0.257448,0.0266 0.462894,0.0869 0.63282,0.18575 z"
       style="fill:#000000;fill-opacity:1;stroke:none;stroke-width:0.05895983;stroke-opacity:1" />
    <path
       inkscape:connector-curvature="0"
       id="path42986"
       d="m 67.942881,121.14896 c 0.206617,0.36361 0.27683,0.88657 0.170299,1.2684 -0.08332,0.29868 -0.176924,0.44179 -1.263655,1.93199 -1.37013,1.8788 -1.413398,1.92067 -2.093876,2.02723 -0.936656,0.14665 -1.717445,-0.42275 -1.864095,-1.3594 -0.106542,-0.68049 -0.07989,-0.73448 1.290244,-2.61329 1.347429,-1.84768 1.437135,-1.93503 2.080534,-2.02838 0.483658,-0.0701 0.846444,0.0169 1.227102,0.29455 0.209118,0.1525 0.356325,0.30799 0.453466,0.47889 z"
       style="fill:#000000;fill-opacity:1;stroke:none;stroke-width:0.05895986;stroke-opacity:1" />
    <path
       inkscape:connector-curvature="0"
       id="path42991"
       d="m 52.422271,102.18783 c -0.01249,0.41802 -0.224337,0.90128 -0.513813,1.1721 -0.226431,0.21185 -0.380783,0.28546 -2.083752,0.99365 -2.147069,0.89287 -2.205796,0.90615 -2.842507,0.64347 -0.876403,-0.36158 -1.247459,-1.25385 -0.885879,-2.13026 0.262693,-0.63671 0.313525,-0.66898 2.460595,-1.56185 2.111496,-0.87808 2.233538,-0.90608 2.831709,-0.65139 0.449639,0.19148 0.714296,0.45445 0.895197,0.88946 0.09938,0.23898 0.144315,0.44833 0.138472,0.64482 z"
       style="fill:#000000;fill-opacity:1;stroke:none;stroke-width:0.0589596;stroke-opacity:1" />
    <path
       inkscape:connector-curvature="0"
       id="path42996"
       d="m 48.504943,77.722007 c -0.207726,0.362975 -0.622059,0.689702 -1.004919,0.792445 -0.299486,0.08038 -0.470318,0.0727 -2.306212,-0.103769 -2.314659,-0.222486 -2.372727,-0.238404 -2.810936,-0.769793 -0.603165,-0.731449 -0.510705,-1.693368 0.220744,-2.296534 0.531407,-0.438206 0.591442,-0.442755 2.906101,-0.220268 2.27631,0.218799 2.397172,0.251521 2.805135,0.757723 0.306642,0.380543 0.416425,0.737117 0.371348,1.206081 -0.02476,0.257631 -0.08363,0.463501 -0.181242,0.634126 z"
       style="fill:#000000;fill-opacity:1;stroke:none;stroke-width:0.05895973;stroke-opacity:1" />
    <path
       inkscape:connector-curvature="0"
       id="path43001"
       d="m 57.302786,54.828301 c -0.365069,0.204023 -0.888522,0.27051 -1.269577,0.161263 -0.298081,-0.08544 -0.440523,-0.180064 -1.922938,-1.277377 -1.868999,-1.38347 -1.91056,-1.427035 -2.012265,-2.108252 -0.139976,-0.937675 0.434962,-1.714388 1.372637,-1.854364 0.681231,-0.101694 0.735024,-0.07465 2.604024,1.308816 1.838034,1.360548 1.924749,1.450874 2.013513,2.094919 0.06669,0.484145 -0.02298,0.8463 -0.303279,1.224971 -0.153986,0.208027 -0.310521,0.354122 -0.482104,0.450044 z"
       style="fill:#000000;fill-opacity:1;stroke:none;stroke-width:0.05895973;stroke-opacity:1" />
    <path
       inkscape:connector-curvature="0"
       id="path43006"
       d="m 76.37371,39.387555 c -0.418024,-0.01249 -0.901285,-0.224337 -1.1721,-0.513813 -0.211853,-0.226431 -0.285459,-0.380783 -0.993648,-2.083752 -0.892871,-2.147069 -0.90615,-2.205796 -0.643474,-2.842507 0.36158,-0.876403 1.253853,-1.247459 2.130256,-0.885879 0.636717,0.262693 0.66898,0.313525 1.561851,2.460595 0.878078,2.111496 0.906078,2.233538 0.651394,2.831709 -0.191485,0.449639 -0.454454,0.714296 -0.889464,0.895197 -0.238977,0.09938 -0.448328,0.144315 -0.644815,0.138472 z"
       style="fill:#000000;fill-opacity:1;stroke:none;stroke-width:0.0589596;stroke-opacity:1" />
    <path
       inkscape:connector-curvature="0"
       id="path43011"
       d="m 100.62172,35.545647 c -0.35238,-0.225226 -0.658458,-0.655041 -0.742357,-1.042466 -0.06564,-0.303059 -0.04961,-0.47331 0.216417,-2.29838 0.3354,-2.301012 0.35414,-2.358232 0.90632,-2.769933 0.76007,-0.566677 1.71632,-0.427291 2.28299,0.332777 0.4117,0.552199 0.41331,0.612384 0.0779,2.913396 -0.32985,2.262889 -0.36844,2.382006 -0.89399,2.764729 -0.39508,0.287668 -0.7566,0.379883 -1.2228,0.311928 -0.25611,-0.03733 -0.45885,-0.106191 -0.6245,-0.212033 z"
       style="fill:#000000;fill-opacity:1;stroke:none;stroke-width:0.05895975;stroke-opacity:1" />
    <path
       inkscape:connector-curvature="0"
       id="path43016"
       d="m 123.70033,44.537565 c -0.20402,-0.365069 -0.27051,-0.888522 -0.16126,-1.269577 0.0854,-0.298081 0.18006,-0.440523 1.27738,-1.922938 1.38347,-1.868999 1.42703,-1.91056 2.10825,-2.012265 0.93767,-0.139976 1.71439,0.434962 1.85436,1.372637 0.1017,0.681231 0.0747,0.735024 -1.30881,2.604024 -1.36055,1.838034 -1.45088,1.924749 -2.09492,2.013513 -0.48415,0.06669 -0.8463,-0.02298 -1.22497,-0.303279 -0.20803,-0.153986 -0.35413,-0.310521 -0.45005,-0.482104 z"
       style="fill:#000000;fill-opacity:1;stroke:none;stroke-width:0.05895973;stroke-opacity:1" />
    <path
       inkscape:connector-curvature="0"
       id="path31"
       d="m 140.46654,67.37835 c 0.008,-0.169012 0.0958,-0.430154 0.22109,-0.661341 0.34951,-0.645094 0.1386,-0.560897 4.89843,-1.955508 l 4.12398,-1.208298 0.26964,0.05532 c 0.43385,0.08901 0.68849,0.226796 0.95565,0.517107 0.62694,0.681279 0.56677,1.73827 -0.13428,2.355711 -0.22171,0.195274 -0.26172,0.208348 -4.43418,1.448371 l -4.21047,1.251318 -0.3359,-0.06686 c -0.8318,-0.165584 -1.39664,-0.889727 -1.35395,-1.735806 z"
       style="fill:#000000;fill-opacity:1;stroke:none;stroke-width:0.05895934;stroke-opacity:1" />
    <path
       inkscape:connector-curvature="0"
       id="path43957"
       d="m 142.05134,92.030974 c 0.088,-0.144553 0.28918,-0.332557 0.50945,-0.476153 0.61462,-0.400692 0.38907,-0.427138 5.2385,0.614226 l 4.2016,0.902256 0.21072,0.177094 c 0.33906,0.284941 0.49731,0.527404 0.5939,0.909929 0.22668,0.897683 -0.32977,1.798367 -1.24032,2.007268 -0.28796,0.06607 -0.32936,0.05851 -4.58871,-0.838953 l -4.29813,-0.905635 -0.26349,-0.218805 c -0.65247,-0.541852 -0.80412,-1.447636 -0.36352,-2.171207 z"
       style="fill:#000000;fill-opacity:1;stroke:none;stroke-width:0.05895986;stroke-opacity:1" />
    <path
       inkscape:connector-curvature="0"
       id="path43962"
       d="m 131.13542,114.02475 c 0.14876,-0.0807 0.41722,-0.14193 0.67983,-0.15522 0.73275,-0.0371 0.55112,-0.17343 4.21835,3.16616 l 3.17732,2.89346 0.093,0.25906 c 0.14969,0.41683 0.16448,0.70599 0.0555,1.08518 -0.25569,0.88985 -1.18971,1.38833 -2.08173,1.11081 -0.28211,-0.0878 -0.31409,-0.11513 -3.54372,-3.0335 l -3.25905,-2.94495 -0.11765,-0.32165 c -0.2913,-0.79653 0.0333,-1.65564 0.7781,-2.05933 z"
       style="fill:#000000;fill-opacity:1;stroke:none;stroke-width:0.05895983;stroke-opacity:1" />
    <path
       inkscape:connector-curvature="0"
       id="path43967"
       d="m 110.77612,127.58147 c 0.16902,0.008 0.43016,0.0958 0.66134,0.22109 0.6451,0.34951 0.5609,0.1386 1.95551,4.89843 l 1.2083,4.12398 -0.0553,0.26964 c -0.089,0.43385 -0.2268,0.68849 -0.51711,0.95565 -0.68128,0.62694 -1.73827,0.56677 -2.35571,-0.13428 -0.19527,-0.22171 -0.20835,-0.26172 -1.44837,-4.43418 l -1.25132,-4.21047 0.0669,-0.3359 c 0.16558,-0.8318 0.88973,-1.39664 1.73581,-1.35395 z"
       style="fill:#000000;fill-opacity:1;stroke:none;stroke-width:0.05895934;stroke-opacity:1" />
    <path
       inkscape:connector-curvature="0"
       id="path43972"
       d="m 86.120177,129.08821 c 0.144553,0.088 0.332558,0.28918 0.476154,0.50945 0.400692,0.61462 0.427138,0.38906 -0.614221,5.2385 l -0.902253,4.20159 -0.177093,0.21072 c -0.284941,0.33906 -0.527403,0.49731 -0.909928,0.5939 -0.897682,0.22668 -1.798367,-0.32977 -2.007268,-1.24031 -0.06607,-0.28796 -0.05851,-0.32937 0.838949,-4.58871 l 0.90563,-4.29813 0.218805,-0.26349 c 0.541851,-0.65247 1.447635,-0.80413 2.171206,-0.36352 z"
       style="fill:#000000;fill-opacity:1;stroke:none;stroke-width:0.05895983;stroke-opacity:1" />
    <path
       inkscape:connector-curvature="0"
       id="path43977"
       d="m 64.164153,118.09834 c 0.08066,0.14877 0.141935,0.41722 0.155226,0.67983 0.0371,0.73276 0.173426,0.55113 -3.166163,4.21836 l -2.893462,3.17732 -0.25906,0.093 c -0.416829,0.14969 -0.705987,0.16448 -1.085175,0.0555 -0.889854,-0.25569 -1.388335,-1.1897 -1.110813,-2.08173 0.08776,-0.28211 0.11513,-0.31409 3.033497,-3.54372 l 2.944947,-3.25906 0.321654,-0.11765 c 0.79653,-0.2913 1.655643,0.0333 2.059334,0.7781 z"
       style="fill:#000000;fill-opacity:1;stroke:none;stroke-width:0.05895986;stroke-opacity:1" />
    <path
       inkscape:connector-curvature="0"
       id="path43982"
       d="m 50.679514,97.690885 c -0.0084,0.169016 -0.09561,0.430204 -0.220757,0.661454 -0.349182,0.645273 -0.138314,0.560969 -4.897473,1.957971 l -4.123388,1.21037 -0.269666,-0.0552 c -0.433897,-0.0888 -0.688611,-0.22646 -0.955912,-0.51663 -0.62729,-0.68097 -0.567648,-1.737998 0.133099,-2.355792 0.221612,-0.195386 0.261614,-0.208481 4.433473,-1.450601 l 4.209856,-1.253434 0.335937,0.06669 c 0.831884,0.165168 1.397091,0.88903 1.354825,1.735135 z"
       style="fill:#000000;fill-opacity:1;stroke:none;stroke-width:0.0589596;stroke-opacity:1" />
    <path
       inkscape:connector-curvature="0"
       id="path43987"
       d="m 49.2679,72.996552 c -0.08696,0.145176 -0.286802,0.334608 -0.506043,0.479768 -0.611749,0.405057 -0.386015,0.429896 -5.242728,-0.576908 l -4.207907,-0.872314 -0.211976,-0.175589 c -0.341078,-0.282518 -0.50105,-0.523848 -0.600362,-0.905674 -0.233064,-0.896044 0.316958,-1.800666 1.225986,-2.016045 0.287485,-0.06812 0.328944,-0.06085 4.594559,0.806257 l 4.304467,0.875004 0.265039,0.216923 c 0.656308,0.537191 0.814408,1.441871 0.378969,2.168559 z"
       style="fill:#000000;fill-opacity:1;stroke:none;stroke-width:0.05895973;stroke-opacity:1" />
    <path
       inkscape:connector-curvature="0"
       id="path43992"
       d="m 60.299937,51.141334 c -0.149334,0.0796 -0.418219,0.138961 -0.680913,0.150382 -0.733001,0.03188 -0.552348,0.169496 -4.195697,-3.196113 l -3.156632,-2.916006 -0.09118,-0.259715 c -0.146713,-0.417883 -0.159446,-0.707139 -0.04779,-1.08554 0.262018,-0.888009 1.199559,-1.379826 2.089581,-1.09596 0.281477,0.08977 0.313261,0.117364 3.522031,3.058646 l 3.237996,2.968072 0.115352,0.322483 c 0.285626,0.798582 -0.04509,1.65536 -0.792736,2.053736 z"
       style="fill:#000000;fill-opacity:1;stroke:none;stroke-width:0.05895973;stroke-opacity:1" />
    <path
       inkscape:connector-curvature="0"
       id="path43997"
       d="m 80.779198,37.700555 c -0.169016,-0.0084 -0.430204,-0.09561 -0.661454,-0.220757 -0.645273,-0.349182 -0.560969,-0.138314 -1.957972,-4.897473 l -1.210371,-4.123388 0.05519,-0.269666 c 0.08879,-0.433897 0.226452,-0.688611 0.51663,-0.955912 0.680968,-0.62729 1.737994,-0.567648 2.355788,0.133099 0.195386,0.221612 0.208481,0.261614 1.450601,4.433473 l 1.253434,4.209856 -0.06669,0.335937 c -0.165168,0.831884 -0.88903,1.397091 -1.735135,1.354825 z"
       style="fill:#000000;fill-opacity:1;stroke:none;stroke-width:0.0589596;stroke-opacity:1" />
    <path
       inkscape:connector-curvature="0"
       id="path44002"
       d="m 105.4772,36.371476 c -0.14518,-0.08696 -0.33461,-0.286802 -0.47977,-0.506043 -0.40506,-0.611749 -0.4299,-0.386015 0.57691,-5.242728 l 0.87231,-4.207907 0.17559,-0.211976 c 0.28252,-0.341078 0.52385,-0.50105 0.90567,-0.600362 0.89605,-0.233064 1.80067,0.316958 2.01605,1.225986 0.0681,0.287485 0.0609,0.328944 -0.80626,4.594559 l -0.875,4.304467 -0.21692,0.265039 c -0.5372,0.656308 -1.44187,0.814408 -2.16856,0.378969 z"
       style="fill:#000000;fill-opacity:1;stroke:none;stroke-width:0.05895973;stroke-opacity:1" />
    <path
       inkscape:connector-curvature="0"
       id="path44007"
       d="m 127.29107,47.48467 c -0.0796,-0.149334 -0.13896,-0.418219 -0.15038,-0.680913 -0.0319,-0.733001 -0.1695,-0.552348 3.19611,-4.195697 l 2.91601,-3.156632 0.25971,-0.09118 c 0.41788,-0.146713 0.70714,-0.159446 1.08554,-0.04779 0.88801,0.262018 1.37983,1.199559 1.09596,2.089581 -0.0898,0.281477 -0.11736,0.313261 -3.05865,3.522031 l -2.96807,3.237996 -0.32248,0.115352 c -0.79858,0.285626 -1.65536,-0.04509 -2.05374,-0.792736 z"
       style="fill:#000000;fill-opacity:1;stroke:none;stroke-width:0.05895973;stroke-opacity:1" />
    <path
       inkscape:connector-curvature="0"
       id="path41"
       d="m 138.59873,72.808327 c 0.0698,-0.436353 0.25248,-0.757051 0.59619,-1.046607 l 0.28382,-0.239111 9.01313,-1.678873 9.01316,-1.678877 0.26238,0.0832 c 0.58484,0.185457 0.98512,0.57101 1.1685,1.125506 0.1913,0.57873 -0.0411,1.311875 -0.55177,1.740026 l -0.2853,0.239193 -9.01315,1.678877 -9.01314,1.678874 -0.341,-0.113644 c -0.78945,-0.263101 -1.25843,-1.003544 -1.13283,-1.788568 z"
       style="fill:#000000;fill-opacity:1;stroke:none;stroke-width:0.05895934;stroke-opacity:1" />
    <path
       inkscape:connector-curvature="0"
       id="path44194"
       d="m 137.68065,95.85387 c 0.26924,-0.350412 0.58266,-0.545346 1.0228,-0.636196 l 0.36346,-0.07503 8.72453,2.817679 8.72454,2.817687 0.19107,0.19815 c 0.42586,0.44168 0.59413,0.97137 0.4912,1.54626 -0.1075,0.59998 -0.6611,1.13388 -1.31408,1.26704 l -0.36479,0.0744 -8.72455,-2.81769 -8.72453,-2.81768 -0.24569,-0.262372 c -0.56877,-0.607419 -0.62837,-1.481865 -0.14396,-2.112255 z"
       style="fill:#000000;fill-opacity:1;stroke:none;stroke-width:0.05895986;stroke-opacity:1" />
    <path
       inkscape:connector-curvature="0"
       id="path44199"
       d="m 125.46213,115.12335 c 0.40897,-0.1674 0.7779,-0.1782 1.204,-0.0353 l 0.35186,0.118 6.12265,6.8242 6.12267,6.82422 0.0654,0.26737 c 0.14586,0.59595 0.0248,1.13839 -0.35335,1.58346 -0.39474,0.46444 -1.14177,0.64736 -1.77309,0.43396 l -0.3527,-0.11922 -6.12267,-6.82422 -6.12266,-6.8242 -0.0803,-0.35035 c -0.18599,-0.81109 0.20241,-1.59681 0.9382,-1.89793 z"
       style="fill:#000000;fill-opacity:1;stroke:none;stroke-width:0.05895983;stroke-opacity:1" />
    <path
       inkscape:connector-curvature="0"
       id="path44204"
       d="m 105.41273,125.68345 c 0.43635,0.0698 0.75705,0.25248 1.04661,0.59619 l 0.23911,0.28382 1.67887,9.01313 1.67888,9.01316 -0.0832,0.26238 c -0.18546,0.58484 -0.57101,0.98512 -1.12551,1.1685 -0.57873,0.1913 -1.31187,-0.0411 -1.74002,-0.55177 l -0.2392,-0.2853 -1.67887,-9.01315 -1.67888,-9.01314 0.11365,-0.341 c 0.2631,-0.78945 1.00354,-1.25843 1.78856,-1.13283 z"
       style="fill:#000000;fill-opacity:1;stroke:none;stroke-width:0.05895934;stroke-opacity:1" />
    <path
       inkscape:connector-curvature="0"
       id="path44209"
       d="m 82.369772,124.72267 c 0.350412,0.26923 0.545347,0.58265 0.636197,1.02279 l 0.07503,0.36346 -2.817669,8.72453 -2.817676,8.72454 -0.198153,0.19107 c -0.441672,0.42585 -0.97136,0.59413 -1.546254,0.4912 -0.599978,-0.1075 -1.133877,-0.6611 -1.267045,-1.31408 l -0.07439,-0.36479 2.817675,-8.72455 2.817669,-8.72453 0.262373,-0.24568 c 0.607418,-0.56878 1.481864,-0.62838 2.112254,-0.14396 z"
       style="fill:#000000;fill-opacity:1;stroke:none;stroke-width:0.05895983;stroke-opacity:1" />
    <path
       inkscape:connector-curvature="0"
       id="path44214"
       d="m 63.125152,112.46598 c 0.167397,0.40896 0.1782,0.7779 0.03529,1.20399 l -0.118003,0.35186 -6.824201,6.12267 -6.824215,6.12267 -0.267372,0.0654 c -0.59595,0.14586 -1.138385,0.0248 -1.583453,-0.35335 -0.464449,-0.39474 -0.64737,-1.14177 -0.433971,-1.77309 l 0.119224,-0.3527 6.824215,-6.12268 6.824201,-6.12266 0.350351,-0.0803 c 0.811094,-0.18599 1.596814,0.2024 1.897932,0.93819 z"
       style="fill:#000000;fill-opacity:1;stroke:none;stroke-width:0.05895986;stroke-opacity:1" />
    <path
       inkscape:connector-curvature="0"
       id="path44219"
       d="m 52.606687,92.391743 c -0.06957,0.43639 -0.252109,0.75718 -0.595672,1.04691 l -0.2837,0.239254 -9.012333,1.683399 -9.012352,1.683403 -0.26243,-0.08307 c -0.584927,-0.185165 -0.985409,-0.570518 -1.16906,-1.124926 -0.191594,-0.578635 0.04044,-1.311901 0.550895,-1.740309 l 0.28518,-0.239337 9.012353,-1.683403 9.012332,-1.6834 0.341062,0.113473 c 0.789585,0.262707 1.258934,1.002918 1.133725,1.788009 z"
       style="fill:#000000;fill-opacity:1;stroke:none;stroke-width:0.0589596;stroke-opacity:1" />
    <path
       inkscape:connector-curvature="0"
       id="path44224"
       d="m 53.638918,69.297851 c -0.266736,0.35232 -0.578753,0.549481 -1.018239,0.643462 l -0.362912,0.07761 -8.744351,-2.755478 -8.744371,-2.755484 -0.19247,-0.196787 c -0.428991,-0.438628 -0.601031,-0.967104 -0.502196,-1.542714 0.103227,-0.600728 0.65301,-1.138554 1.305016,-1.276367 l 0.364257,-0.07699 8.74437,2.755484 8.744351,2.755477 0.247546,0.260616 c 0.573088,0.603353 0.638912,1.47735 0.158997,2.111172 z"
       style="fill:#000000;fill-opacity:1;stroke:none;stroke-width:0.05895973;stroke-opacity:1" />
    <path
       inkscape:connector-curvature="0"
       id="path44229"
       d="m 65.869581,50.174413 c -0.41015,0.164481 -0.779149,0.172656 -1.204216,0.02672 l -0.35101,-0.120504 -6.073902,-6.867609 -6.073915,-6.867624 -0.06354,-0.26783 c -0.141608,-0.596972 -0.01671,-1.13853 0.364619,-1.580893 0.398034,-0.461625 1.146351,-0.639223 1.776135,-0.421333 l 0.35184,0.121731 6.073916,6.867624 6.073902,6.867608 0.07784,0.350913 c 0.180211,0.812396 -0.213771,1.595329 -0.951679,1.8912 z"
       style="fill:#000000;fill-opacity:1;stroke:none;stroke-width:0.05895973;stroke-opacity:1" />
    <path
       inkscape:connector-curvature="0"
       id="path44234"
       d="m 86.011601,39.657391 c -0.43639,-0.06957 -0.75718,-0.252109 -1.04691,-0.595672 l -0.239254,-0.2837 -1.683399,-9.012333 -1.683403,-9.012352 0.08307,-0.26243 c 0.185165,-0.584927 0.570518,-0.985409 1.124926,-1.16906 0.578635,-0.191594 1.311901,0.04044 1.740309,0.550895 l 0.239337,0.28518 1.683403,9.012353 1.6834,9.012332 -0.113473,0.341062 C 87.5369,39.313251 86.796689,39.7826 86.011598,39.657391 Z"
       style="fill:#000000;fill-opacity:1;stroke:none;stroke-width:0.0589596;stroke-opacity:1" />
    <path
       inkscape:connector-curvature="0"
       id="path44239"
       d="m 109.10263,40.737267 c -0.35232,-0.266736 -0.54948,-0.578753 -0.64346,-1.018239 l -0.0776,-0.362912 2.75548,-8.744351 2.75549,-8.744371 0.19678,-0.19247 c 0.43863,-0.428991 0.96711,-0.601031 1.54272,-0.502196 0.60072,0.103227 1.13855,0.65301 1.27636,1.305016 l 0.077,0.364257 -2.75548,8.74437 -2.75548,8.744351 -0.26061,0.247546 c -0.60336,0.573088 -1.47735,0.638912 -2.11118,0.158997 z"
       style="fill:#000000;fill-opacity:1;stroke:none;stroke-width:0.05895973;stroke-opacity:1" />
    <path
       inkscape:connector-curvature="0"
       id="path44244"
       d="m 128.1974,53.012065 c -0.16448,-0.41015 -0.17265,-0.779149 -0.0267,-1.204216 l 0.12051,-0.35101 6.86761,-6.073902 6.86762,-6.073915 0.26783,-0.06354 c 0.59697,-0.141608 1.13853,-0.01671 1.58089,0.364619 0.46163,0.398034 0.63922,1.146351 0.42134,1.776135 l -0.12174,0.351841 -6.86762,6.073915 -6.86761,6.073902 -0.35091,0.07784 c -0.8124,0.180211 -1.59533,-0.213771 -1.8912,-0.951679 z"
       style="fill:#000000;fill-opacity:1;stroke:none;stroke-width:0.05895973;stroke-opacity:1" />
    <path
       inkscape:connector-curvature="0"
       id="path29"
       d="m 142.66294,77.034522 c 0.0929,-0.347234 0.39547,-0.739894 0.73684,-0.956219 l 0.28928,-0.183311 4.37862,-0.348569 c 4.33912,-0.345424 4.38115,-0.347666 4.6583,-0.245279 0.87626,0.323628 1.31305,1.288055 0.97344,2.149372 -0.14463,0.367027 -0.33268,0.587269 -0.70537,0.826509 l -0.23164,0.148693 -4.28369,0.357241 c -4.94162,0.412144 -4.71539,0.414717 -5.27157,-0.05943 -0.50873,-0.433715 -0.71159,-1.063315 -0.54421,-1.689059 z"
       style="fill:#000000;fill-opacity:1;stroke:none;stroke-width:0.05895934;stroke-opacity:1" />
    <path
       style="fill:#000000;fill-opacity:1;stroke:none;stroke-width:0.05895934;stroke-opacity:1"
       d="m 142.66294,77.034522 c 0.0929,-0.347234 0.39547,-0.739894 0.73684,-0.956219 l 0.28928,-0.183311 4.37862,-0.348569 c 4.33912,-0.345424 4.38115,-0.347666 4.6583,-0.245279 0.87626,0.323628 1.31305,1.288055 0.97344,2.149372 -0.14463,0.367027 -0.33268,0.587269 -0.70537,0.826509 l -0.23164,0.148693 -4.28369,0.357241 c -4.94162,0.412144 -4.71539,0.414717 -5.27157,-0.05943 -0.50873,-0.433715 -0.71159,-1.063315 -0.54421,-1.689059 z"
       id="path39362"
       inkscape:connector-curvature="0" />
    <path
       inkscape:connector-curvature="0"
       id="path44499"
       d="m 139.08959,101.47415 c 0.2471,-0.26105 0.70019,-0.46215 1.10339,-0.48973 l 0.34168,-0.0234 4.01592,1.77948 c 3.97969,1.76342 4.01772,1.78147 4.21262,2.00353 0.61627,0.70199 0.54086,1.75804 -0.16806,2.35356 -0.30202,0.2538 -0.57228,0.35786 -1.01394,0.39066 l -0.2745,0.0204 -3.93659,-1.72663 c -4.54122,-1.99179 -4.34353,-1.88175 -4.60667,-2.5636 -0.24068,-0.6237 -0.1191,-1.27391 0.32617,-1.74435 z"
       style="fill:#000000;fill-opacity:1;stroke:none;stroke-width:0.05895986;stroke-opacity:1" />
    <path
       style="fill:#000000;fill-opacity:1;stroke:none;stroke-width:0.05895986;stroke-opacity:1"
       d="m 139.08959,101.47415 c 0.2471,-0.26105 0.70019,-0.46215 1.10339,-0.48973 l 0.34168,-0.0234 4.01592,1.77948 c 3.97969,1.76342 4.01772,1.78147 4.21262,2.00353 0.61627,0.70199 0.54086,1.75804 -0.16806,2.35356 -0.30202,0.2538 -0.57228,0.35786 -1.01394,0.39066 l -0.2745,0.0204 -3.93659,-1.72663 c -4.54122,-1.99179 -4.34353,-1.88175 -4.60667,-2.5636 -0.24068,-0.6237 -0.1191,-1.27391 0.32617,-1.74435 z"
       id="path44503"
       inkscape:connector-curvature="0" />
    <path
       inkscape:connector-curvature="0"
       id="path44506"
       d="m 123.84355,120.71556 c 0.34488,-0.1013 0.83763,-0.0472 1.19997,0.13185 l 0.30704,0.15169 2.57555,3.55819 c 2.55231,3.52609 2.57609,3.56082 2.63282,3.85078 0.17946,0.91672 -0.41697,1.79147 -1.32924,1.94951 -0.3887,0.0674 -0.67463,0.0214 -1.07283,-0.17245 l -0.24749,-0.12047 -2.53357,-3.47261 c -2.92272,-4.00594 -2.80723,-3.81139 -2.69163,-4.53305 0.10576,-0.66011 0.53793,-1.16089 1.15942,-1.34347 z"
       style="fill:#000000;fill-opacity:1;stroke:none;stroke-width:0.05895983;stroke-opacity:1" />
    <path
       style="fill:#000000;fill-opacity:1;stroke:none;stroke-width:0.05895983;stroke-opacity:1"
       d="m 123.84355,120.71556 c 0.34488,-0.1013 0.83763,-0.0472 1.19997,0.13185 l 0.30704,0.15169 2.57555,3.55819 c 2.55231,3.52609 2.57609,3.56082 2.63282,3.85078 0.17946,0.91672 -0.41697,1.79147 -1.32924,1.94951 -0.3887,0.0674 -0.67463,0.0214 -1.07283,-0.17245 l -0.24749,-0.12047 -2.53357,-3.47261 c -2.92272,-4.00594 -2.80723,-3.81139 -2.69163,-4.53305 0.10576,-0.66011 0.53793,-1.16089 1.15942,-1.34347 z"
       id="path44510"
       inkscape:connector-curvature="0" />
    <path
       inkscape:connector-curvature="0"
       id="path44513"
       d="m 101.11545,129.74366 c 0.34723,0.0929 0.73989,0.39547 0.95622,0.73684 l 0.18331,0.28928 0.34856,4.37862 c 0.34543,4.33912 0.34767,4.38115 0.24528,4.6583 -0.32362,0.87626 -1.28805,1.31305 -2.14937,0.97344 -0.36702,-0.14463 -0.58727,-0.33268 -0.826507,-0.70537 l -0.148693,-0.23164 -0.357241,-4.28369 c -0.412144,-4.94162 -0.414717,-4.71539 0.05943,-5.27157 0.433715,-0.50873 1.063311,-0.71159 1.689061,-0.54421 z"
       style="fill:#000000;fill-opacity:1;stroke:none;stroke-width:0.05895934;stroke-opacity:1" />
    <path
       style="fill:#000000;fill-opacity:1;stroke:none;stroke-width:0.05895934;stroke-opacity:1"
       d="m 101.11545,129.74366 c 0.34723,0.0929 0.73989,0.39547 0.95622,0.73684 l 0.18331,0.28928 0.34856,4.37862 c 0.34543,4.33912 0.34767,4.38115 0.24528,4.6583 -0.32362,0.87626 -1.28805,1.31305 -2.14937,0.97344 -0.36702,-0.14463 -0.58727,-0.33268 -0.826507,-0.70537 l -0.148693,-0.23164 -0.357241,-4.28369 c -0.412144,-4.94162 -0.414717,-4.71539 0.05943,-5.27157 0.433715,-0.50873 1.063311,-0.71159 1.689061,-0.54421 z"
       id="path44517"
       inkscape:connector-curvature="0" />
    <path
       inkscape:connector-curvature="0"
       id="path44520"
       d="m 76.688654,126.09419 c 0.261049,0.2471 0.462149,0.70019 0.489724,1.1034 l 0.02336,0.34168 -1.779473,4.01591 c -1.76342,3.9797 -1.781471,4.01772 -2.003527,4.21262 -0.70199,0.61627 -1.75804,0.54087 -2.353558,-0.16805 -0.253804,-0.30202 -0.357862,-0.57229 -0.390665,-1.01394 l -0.02039,-0.2745 1.726625,-3.93659 c 1.991784,-4.54122 1.881745,-4.34353 2.563597,-4.60667 0.623698,-0.24068 1.273907,-0.1191 1.74435,0.32616 z"
       style="fill:#000000;fill-opacity:1;stroke:none;stroke-width:0.05895983;stroke-opacity:1" />
    <path
       style="fill:#000000;fill-opacity:1;stroke:none;stroke-width:0.05895983;stroke-opacity:1"
       d="m 76.688654,126.09419 c 0.261049,0.2471 0.462149,0.70019 0.489724,1.1034 l 0.02336,0.34168 -1.779473,4.01591 c -1.76342,3.9797 -1.781471,4.01772 -2.003527,4.21262 -0.70199,0.61627 -1.75804,0.54087 -2.353558,-0.16805 -0.253804,-0.30202 -0.357862,-0.57229 -0.390665,-1.01394 l -0.02039,-0.2745 1.726625,-3.93659 c 1.991784,-4.54122 1.881745,-4.34353 2.563597,-4.60667 0.623698,-0.24068 1.273907,-0.1191 1.74435,0.32616 z"
       id="path44524"
       inkscape:connector-curvature="0" />
    <path
       inkscape:connector-curvature="0"
       id="path44527"
       d="m 57.498897,110.78443 c 0.101304,0.34487 0.04717,0.83763 -0.131841,1.19997 l -0.151697,0.30704 -3.558189,2.57555 c -3.526089,2.55231 -3.560818,2.57609 -3.85078,2.63283 -0.916716,0.17946 -1.791471,-0.41697 -1.949509,-1.32925 -0.06741,-0.38869 -0.02138,-0.67462 0.17245,-1.07282 l 0.120473,-0.24749 3.472605,-2.53357 c 4.00594,-2.92273 3.811388,-2.80724 4.533055,-2.69164 0.660106,0.10576 1.160885,0.53793 1.343464,1.15942 z"
       style="fill:#000000;fill-opacity:1;stroke:none;stroke-width:0.05895986;stroke-opacity:1" />
    <path
       style="fill:#000000;fill-opacity:1;stroke:none;stroke-width:0.05895986;stroke-opacity:1"
       d="m 57.498897,110.78443 c 0.101304,0.34487 0.04717,0.83763 -0.131841,1.19997 l -0.151697,0.30704 -3.558189,2.57555 c -3.526089,2.55231 -3.560818,2.57609 -3.85078,2.63283 -0.916716,0.17946 -1.791471,-0.41697 -1.949509,-1.32925 -0.06741,-0.38869 -0.02138,-0.67462 0.17245,-1.07282 l 0.120473,-0.24749 3.472605,-2.53357 c 4.00594,-2.92273 3.811388,-2.80724 4.533055,-2.69164 0.660106,0.10576 1.160885,0.53793 1.343464,1.15942 z"
       id="path44531"
       inkscape:connector-curvature="0" />
    <path
       inkscape:connector-curvature="0"
       id="path44534"
       d="m 48.550378,88.024534 c -0.09272,0.347283 -0.395095,0.740096 -0.73636,0.956593 l -0.289193,0.183457 -4.378464,0.350765 c -4.338964,0.347601 -4.380993,0.349864 -4.658196,0.247616 -0.876421,-0.32319 -1.313699,-1.287403 -0.974522,-2.148893 0.144448,-0.367102 0.332393,-0.587439 0.704963,-0.826867 l 0.231561,-0.148809 4.283532,-0.35939 c 4.941435,-0.414624 4.715199,-0.417083 5.271624,0.05679 0.508952,0.433462 0.712124,1.062962 0.545059,1.688794 z"
       style="fill:#000000;fill-opacity:1;stroke:none;stroke-width:0.0589596;stroke-opacity:1" />
    <path
       style="fill:#000000;fill-opacity:1;stroke:none;stroke-width:0.0589596;stroke-opacity:1"
       d="m 48.550378,88.024534 c -0.09272,0.347283 -0.395095,0.740096 -0.73636,0.956593 l -0.289193,0.183457 -4.378464,0.350765 c -4.338964,0.347601 -4.380993,0.349864 -4.658196,0.247616 -0.876421,-0.32319 -1.313699,-1.287403 -0.974522,-2.148893 0.144448,-0.367102 0.332393,-0.587439 0.704963,-0.826867 l 0.231561,-0.148809 4.283532,-0.35939 c 4.941435,-0.414624 4.715199,-0.417083 5.271624,0.05679 0.508952,0.433462 0.712124,1.062962 0.545059,1.688794 z"
       id="path44538"
       inkscape:connector-curvature="0" />
    <path
       inkscape:connector-curvature="0"
       id="path44541"
       d="m 52.300043,63.579798 c -0.245232,0.262801 -0.69688,0.467122 -1.099877,0.497566 l -0.341503,0.02579 -4.02848,-1.750833 c -3.992138,-1.735038 -4.030288,-1.752818 -4.22677,-1.97348 -0.621246,-0.697583 -0.553365,-1.754141 0.151299,-2.354691 0.300201,-0.255947 0.569719,-0.361926 1.011129,-0.397873 l 0.274347,-0.02234 3.948773,1.698551 c 4.555278,1.959399 4.356812,1.85077 4.6248,2.53073 0.245112,0.621967 0.128167,1.273024 -0.313739,1.746625 z"
       style="fill:#000000;fill-opacity:1;stroke:none;stroke-width:0.05895973;stroke-opacity:1" />
    <path
       style="fill:#000000;fill-opacity:1;stroke:none;stroke-width:0.05895973;stroke-opacity:1"
       d="m 52.300043,63.579798 c -0.245232,0.262801 -0.69688,0.467122 -1.099877,0.497566 l -0.341503,0.02579 -4.02848,-1.750833 c -3.992138,-1.735038 -4.030288,-1.752818 -4.22677,-1.97348 -0.621246,-0.697583 -0.553365,-1.754141 0.151299,-2.354691 0.300201,-0.255947 0.569719,-0.361926 1.011129,-0.397873 l 0.274347,-0.02234 3.948773,1.698551 c 4.555278,1.959399 4.356812,1.85077 4.6248,2.53073 0.245112,0.621967 0.128167,1.273024 -0.313739,1.746625 z"
       id="path44545"
       inkscape:connector-curvature="0" />
    <path
       inkscape:connector-curvature="0"
       id="path44548"
       d="m 67.629193,44.496811 c -0.345591,0.09884 -0.837942,0.0412 -1.198998,-0.140382 L 66.124237,44.20255 63.574096,40.62612 c -2.527136,-3.544165 -2.550668,-3.579062 -2.605339,-3.869421 -0.172923,-0.917968 0.42972,-1.788453 1.343092,-1.93999 0.389166,-0.06465 0.674756,-0.01658 1.071567,0.180084 l 0.246626,0.122232 2.508775,3.490549 c 2.894125,4.026641 2.780019,3.831272 2.659284,4.552096 -0.110455,0.659335 -0.546182,1.157023 -1.16895,1.335171 z"
       style="fill:#000000;fill-opacity:1;stroke:none;stroke-width:0.05895973;stroke-opacity:1" />
    <path
       style="fill:#000000;fill-opacity:1;stroke:none;stroke-width:0.05895973;stroke-opacity:1"
       d="m 67.629193,44.496811 c -0.345591,0.09884 -0.837942,0.0412 -1.198998,-0.140382 L 66.124237,44.20255 63.574096,40.62612 c -2.527136,-3.544165 -2.550668,-3.579062 -2.605339,-3.869421 -0.172923,-0.917968 0.42972,-1.788453 1.343092,-1.93999 0.389166,-0.06465 0.674756,-0.01658 1.071567,0.180084 l 0.246626,0.122232 2.508775,3.490549 c 2.894125,4.026641 2.780019,3.831272 2.659284,4.552096 -0.110455,0.659335 -0.546182,1.157023 -1.16895,1.335171 z"
       id="path44552"
       inkscape:connector-curvature="0" />
    <path
       inkscape:connector-curvature="0"
       id="path44555"
       d="m 90.449918,35.605179 c -0.347283,-0.09272 -0.740096,-0.395095 -0.956593,-0.73636 l -0.183457,-0.289193 -0.350765,-4.378464 c -0.347601,-4.338964 -0.349864,-4.380993 -0.247616,-4.658196 0.32319,-0.876421 1.287403,-1.313699 2.148893,-0.974522 0.367102,0.144448 0.587439,0.332393 0.826867,0.704963 l 0.148809,0.231561 0.35939,4.283532 c 0.414624,4.941435 0.417083,4.715199 -0.05679,5.271624 -0.433462,0.508952 -1.062962,0.712124 -1.688794,0.545059 z"
       style="fill:#000000;fill-opacity:1;stroke:none;stroke-width:0.0589596;stroke-opacity:1" />
    <path
       style="fill:#000000;fill-opacity:1;stroke:none;stroke-width:0.0589596;stroke-opacity:1"
       d="m 90.449918,35.605179 c -0.347283,-0.09272 -0.740096,-0.395095 -0.956593,-0.73636 l -0.183457,-0.289193 -0.350765,-4.378464 c -0.347601,-4.338964 -0.349864,-4.380993 -0.247616,-4.658196 0.32319,-0.876421 1.287403,-1.313699 2.148893,-0.974522 0.367102,0.144448 0.587439,0.332393 0.826867,0.704963 l 0.148809,0.231561 0.35939,4.283532 c 0.414624,4.941435 0.417083,4.715199 -0.05679,5.271624 -0.433462,0.508952 -1.062962,0.712124 -1.688794,0.545059 z"
       id="path44559"
       inkscape:connector-curvature="0" />
    <path
       inkscape:connector-curvature="0"
       id="path44562"
       d="m 114.88124,39.435435 c -0.2628,-0.245232 -0.46712,-0.69688 -0.49757,-1.099877 l -0.0258,-0.341503 1.75083,-4.02848 c 1.73504,-3.992138 1.75282,-4.030288 1.97348,-4.22677 0.69758,-0.621246 1.75414,-0.553365 2.35469,0.151299 0.25595,0.300201 0.36193,0.569719 0.39787,1.011129 l 0.0223,0.274347 -1.69855,3.948773 c -1.95939,4.555278 -1.85077,4.356812 -2.53073,4.6248 -0.62196,0.245112 -1.27302,0.128167 -1.74662,-0.313739 z"
       style="fill:#000000;fill-opacity:1;stroke:none;stroke-width:0.05895973;stroke-opacity:1" />
    <path
       style="fill:#000000;fill-opacity:1;stroke:none;stroke-width:0.05895973;stroke-opacity:1"
       d="m 114.88124,39.435435 c -0.2628,-0.245232 -0.46712,-0.69688 -0.49757,-1.099877 l -0.0258,-0.341503 1.75083,-4.02848 c 1.73504,-3.992138 1.75282,-4.030288 1.97348,-4.22677 0.69758,-0.621246 1.75414,-0.553365 2.35469,0.151299 0.25595,0.300201 0.36193,0.569719 0.39787,1.011129 l 0.0223,0.274347 -1.69855,3.948773 c -1.95939,4.555278 -1.85077,4.356812 -2.53073,4.6248 -0.62196,0.245112 -1.27302,0.128167 -1.74662,-0.313739 z"
       id="path44566"
       inkscape:connector-curvature="0" />
    <path
       inkscape:connector-curvature="0"
       id="path44569"
       d="m 133.90754,54.83459 c -0.0988,-0.345591 -0.0412,-0.837943 0.14038,-1.198998 l 0.15388,-0.305958 3.57643,-2.550141 c 3.54416,-2.527136 3.57906,-2.550668 3.86942,-2.605339 0.91797,-0.172924 1.78845,0.42972 1.93999,1.343091 0.0646,0.389167 0.0166,0.674757 -0.18009,1.071567 l -0.12223,0.246627 -3.49055,2.508775 c -4.02664,2.894125 -3.83127,2.780019 -4.55209,2.659284 -0.65934,-0.110455 -1.15703,-0.546182 -1.33517,-1.168951 z"
       style="fill:#000000;fill-opacity:1;stroke:none;stroke-width:0.05895973;stroke-opacity:1" />
    <path
       style="fill:#000000;fill-opacity:1;stroke:none;stroke-width:0.05895973;stroke-opacity:1"
       d="m 133.90754,54.83459 c -0.0988,-0.345591 -0.0412,-0.837943 0.14038,-1.198998 l 0.15388,-0.305958 3.57643,-2.550141 c 3.54416,-2.527136 3.57906,-2.550668 3.86942,-2.605339 0.91797,-0.172924 1.78845,0.42972 1.93999,1.343091 0.0646,0.389167 0.0166,0.674757 -0.18009,1.071567 l -0.12223,0.246627 -3.49055,2.508775 c -4.02664,2.894125 -3.83127,2.780019 -4.55209,2.659284 -0.65934,-0.110455 -1.15703,-0.546182 -1.33517,-1.168951 z"
       id="path44573"
       inkscape:connector-curvature="0" />
    <path
       inkscape:connector-curvature="0"
       id="path21"
       d="m 142.99633,81.990889 c 0.13455,-0.35114 0.46777,-0.688328 0.85699,-0.867398 l 0.34157,-0.157138 1.96441,0.03202 c 1.6425,0.02682 2.01581,0.04827 2.27815,0.131841 0.88407,0.281435 1.35441,1.200023 1.07072,2.091194 -0.0844,0.264999 -0.17838,0.406496 -0.42758,0.643394 -0.49504,0.47062 -0.58334,0.483693 -2.87602,0.425721 -2.28714,-0.05783 -2.38115,-0.07639 -2.84451,-0.563867 -0.45963,-0.483471 -0.5954,-1.1314 -0.36373,-1.735695 z"
       style="fill:#000000;fill-opacity:1;stroke:none;stroke-width:0.05895934;stroke-opacity:1" />
    <path
       inkscape:connector-curvature="0"
       id="path44916"
       d="m 136.86932,105.94738 c 0.28558,-0.24464 0.7392,-0.38236 1.16672,-0.35438 l 0.37518,0.0246 1.71194,0.96398 c 1.43138,0.80606 1.74939,1.00277 1.94024,1.20122 0.64324,0.66862 0.61917,1.70035 -0.0548,2.34875 -0.20046,0.19279 -0.35049,0.27243 -0.68246,0.362 -0.65945,0.17796 -0.74332,0.14739 -2.73152,-0.99581 -1.9834,-1.14043 -2.05722,-1.20153 -2.23239,-1.85088 -0.1738,-0.64405 0.0155,-1.27842 0.50707,-1.69938 z"
       style="fill:#000000;fill-opacity:1;stroke:none;stroke-width:0.05895986;stroke-opacity:1" />
    <path
       inkscape:connector-curvature="0"
       id="path44921"
       d="m 119.65622,123.49044 c 0.36988,-0.0678 0.83121,0.0414 1.18662,0.28067 l 0.31189,0.20996 0.99459,1.69435 c 0.83156,1.41671 1.00744,1.74669 1.07254,2.01422 0.21956,0.90144 -0.32027,1.781 -1.22895,2.00232 -0.27024,0.0658 -0.43996,0.0591 -0.77192,-0.0305 -0.65946,-0.17795 -0.71656,-0.24656 -1.85975,-2.23476 -1.14043,-1.9834 -1.17349,-2.07335 -0.99821,-2.72267 0.17379,-0.64405 0.65652,-1.09708 1.29313,-1.21358 z"
       style="fill:#000000;fill-opacity:1;stroke:none;stroke-width:0.05895983;stroke-opacity:1" />
    <path
       inkscape:connector-curvature="0"
       id="path44926"
       d="m 96.070736,130.0575 c 0.35114,0.13455 0.688328,0.46777 0.867398,0.85699 l 0.157138,0.34157 -0.03202,1.96441 c -0.02682,1.6425 -0.04827,2.01581 -0.131841,2.27815 -0.281435,0.88407 -1.200023,1.35441 -2.091194,1.07072 -0.264999,-0.0844 -0.406496,-0.17838 -0.643394,-0.42758 -0.47062,-0.49504 -0.483693,-0.58334 -0.425721,-2.87602 0.05783,-2.28714 0.07639,-2.38115 0.563867,-2.84451 0.483471,-0.45963 1.1314,-0.5954 1.735695,-0.36373 z"
       style="fill:#000000;fill-opacity:1;stroke:none;stroke-width:0.05895934;stroke-opacity:1" />
    <path
       inkscape:connector-curvature="0"
       id="path44931"
       d="m 72.146628,123.81456 c 0.244639,0.28558 0.382362,0.7392 0.354386,1.16672 l -0.02456,0.37518 -0.963985,1.71194 c -0.806058,1.43138 -1.002761,1.74938 -1.201218,1.94024 -0.668616,0.64324 -1.700343,0.61917 -2.34875,-0.0548 -0.192782,-0.20047 -0.272427,-0.3505 -0.361999,-0.68246 -0.177958,-0.65946 -0.147387,-0.74332 0.995805,-2.73153 1.140431,-1.9834 1.201537,-2.05722 1.850884,-2.23239 0.64405,-0.1738 1.278421,0.0155 1.699373,0.50707 z"
       style="fill:#000000;fill-opacity:1;stroke:none;stroke-width:0.05895983;stroke-opacity:1" />
    <path
       inkscape:connector-curvature="0"
       id="path44936"
       d="m 54.69398,106.51108 c 0.06776,0.36988 -0.04141,0.83121 -0.280665,1.18662 l -0.209965,0.31189 -1.694342,0.99459 c -1.416716,0.83156 -1.746696,1.00744 -2.014223,1.07255 -0.901444,0.21956 -1.781002,-0.32027 -2.002326,-1.22895 -0.06576,-0.27024 -0.05912,-0.43997 0.03047,-0.77193 0.177951,-0.65945 0.246561,-0.71655 2.234765,-1.85975 1.983402,-1.14043 2.073347,-1.17349 2.722667,-0.99821 0.644051,0.17379 1.09708,0.65652 1.213586,1.29313 z"
       style="fill:#000000;fill-opacity:1;stroke:none;stroke-width:0.05895986;stroke-opacity:1" />
    <path
       inkscape:connector-curvature="0"
       id="path44941"
       d="m 48.25533,82.890636 c -0.13437,0.351208 -0.467427,0.688565 -0.856559,0.867831 l -0.341488,0.15731 -1.964434,-0.03103 c -1.642522,-0.02599 -2.015842,-0.04726 -2.278228,-0.130699 -0.884219,-0.280992 -1.355019,-1.199349 -1.071775,-2.090666 0.08429,-0.265043 0.178181,-0.406587 0.427265,-0.643611 0.4948,-0.47087 0.583093,-0.483988 2.875815,-0.427165 2.287184,0.05669 2.381204,0.0752 2.844806,0.562444 0.45987,0.483242 0.595974,1.131106 0.3646,1.73552 z"
       style="fill:#000000;fill-opacity:1;stroke:none;stroke-width:0.0589596;stroke-opacity:1" />
    <path
       inkscape:connector-curvature="0"
       id="path44946"
       d="m 54.640177,58.970073 c -0.283829,0.246667 -0.736456,0.387615 -1.16417,0.362684 l -0.375342,-0.02189 -1.718754,-0.95177 c -1.437079,-0.795845 -1.756479,-0.990279 -1.948737,-1.187372 -0.647983,-0.664018 -0.63126,-1.695888 0.03809,-2.349076 0.19909,-0.194204 0.348547,-0.274915 0.679866,-0.366848 0.658169,-0.182648 0.742249,-0.152676 2.738538,0.97633 1.991467,1.126279 2.065716,1.186858 2.245506,1.83494 0.17838,0.642796 -0.0064,1.278497 -0.494957,1.702938 z"
       style="fill:#000000;fill-opacity:1;stroke:none;stroke-width:0.05895973;stroke-opacity:1" />
    <path
       inkscape:connector-curvature="0"
       id="path44951"
       d="m 71.986311,41.660277 c -0.370354,0.06513 -0.830887,-0.04733 -1.184588,-0.289107 l -0.310388,-0.212179 -0.982494,-1.701378 c -0.821451,-1.422598 -0.994978,-1.753821 -1.058176,-2.021804 -0.213134,-0.902982 0.332946,-1.778672 1.243175,-1.993521 0.270697,-0.06384 0.440373,-0.05599 0.771687,0.03596 0.658171,0.182642 0.714781,0.251657 1.843787,2.247946 1.126279,1.991468 1.158693,2.081645 0.978799,2.729699 -0.178378,0.642796 -0.664313,1.092375 -1.301741,1.204346 z"
       style="fill:#000000;fill-opacity:1;stroke:none;stroke-width:0.05895973;stroke-opacity:1" />
    <path
       inkscape:connector-curvature="0"
       id="path44956"
       d="m 95.672127,35.329042 c -0.351208,-0.13437 -0.688565,-0.467427 -0.867831,-0.856559 l -0.15731,-0.341488 0.03103,-1.964434 c 0.02599,-1.642522 0.04726,-2.015842 0.130699,-2.278228 0.280992,-0.884219 1.199349,-1.355019 2.090666,-1.071775 0.265043,0.08428 0.406587,0.178181 0.643611,0.427265 0.47087,0.4948 0.483988,0.583093 0.427165,2.875815 -0.05669,2.287184 -0.0752,2.381204 -0.562444,2.844806 -0.483242,0.45987 -1.131106,0.595974 -1.73552,0.3646 z"
       style="fill:#000000;fill-opacity:1;stroke:none;stroke-width:0.0589596;stroke-opacity:1" />
    <path
       inkscape:connector-curvature="0"
       id="path44961"
       d="m 119.364,41.685304 c -0.23249,-0.295551 -0.35114,-0.754529 -0.30532,-1.180512 l 0.0402,-0.373823 1.03468,-1.670159 c 0.86516,-1.396445 1.07498,-1.705955 1.28124,-1.888346 0.69491,-0.614739 1.72473,-0.547579 2.3444,0.152906 0.18424,0.208347 0.25755,0.361572 0.33317,0.69699 0.15025,0.666313 0.1162,0.748827 -1.10907,2.687523 -1.22231,1.934012 -1.28645,2.005211 -1.94255,2.153095 -0.65075,0.146735 -1.27666,-0.06889 -1.6767,-0.577636 z"
       style="fill:#000000;fill-opacity:1;stroke:none;stroke-width:0.05895975;stroke-opacity:1" />
    <path
       inkscape:connector-curvature="0"
       id="path44966"
       d="m 136.77243,59.276796 c -0.0651,-0.370354 0.0473,-0.830887 0.2891,-1.184588 l 0.21218,-0.310388 1.70138,-0.982494 c 1.4226,-0.821451 1.75382,-0.994978 2.0218,-1.058176 0.90299,-0.213134 1.77868,0.332946 1.99352,1.243175 0.0638,0.270697 0.056,0.440373 -0.036,0.771687 -0.18264,0.658171 -0.25166,0.714781 -2.24795,1.843787 -1.99146,1.126279 -2.08164,1.158693 -2.7297,0.978799 -0.64279,-0.178378 -1.09237,-0.664313 -1.20434,-1.301741 z"
       style="fill:#000000;fill-opacity:1;stroke:none;stroke-width:0.05895973;stroke-opacity:1" />
  </g>
</svg>
